<?xml version="1.0" encoding="UTF-8"?><svg id="Layer_2" xmlns="http://www.w3.org/2000/svg" viewBox="0 0 167.38 167.99"><defs><style>.cls-1{fill:rgba(236,236,236,.5);opacity:.5;}.cls-1,.cls-2,.cls-3,.cls-4,.cls-5,.cls-6,.cls-7,.cls-8,.cls-9{fill-rule:evenodd;}.cls-1,.cls-2,.cls-3,.cls-4,.cls-5,.cls-6,.cls-7,.cls-8,.cls-9,.cls-10{stroke-width:0px;}.cls-2,.cls-10{fill:#23f48b;}.cls-3{fill:#acf683;}.cls-4{fill:#be63c5;}.cls-5{fill:#e0fb61;}.cls-6{fill:#d2e471;}.cls-7{fill:#f66bf5;}.cls-8{fill:#6adc89;}.cls-9{fill:#b88fd6;}</style></defs><g id="Layer_1-2"><path class="cls-1" d="m96.26,52.22h46.19v20.77h-46.19v-20.77Z"/><path class="cls-8" d="m0,50.09h25.02v25.04H0v-25.04Z"/><path class="cls-6" d="m142.45,0h24.93v25.03h-24.93V0Z"/><path class="cls-4" d="m96.27,143.02h25v24.97h-25v-24.97Z"/><path class="cls-3" d="m2.11,25.04h22.91V2.13C14.34,5.91,5.88,14.37,2.11,25.04Z"/><path class="cls-9" d="m71.22,143.02h-22.91c3.77,10.68,12.23,19.14,22.91,22.91v-22.91Z"/><path class="cls-5" d="m25.02,25.04h117.43V0H37.55c-4.39,0-8.62.75-12.53,2.14v22.91h0Z"/><path class="cls-5" d="m142.45,25.03v47.95c10.68-3.77,19.14-12.23,22.91-22.91,1.06-3,1.75-6.18,2.01-9.47v-15.57h-24.93Z"/><path class="cls-2" d="m25.02,50.09v-25.04H2.11c-1.24,3.51-1.97,7.25-2.11,11.15v13.9h25.02Z"/><rect class="cls-10" x="25.02" y="50.09" width="21.15" height="25.04"/><path class="cls-2" d="m71.19,75.13h-25.02v55.37c0,4.39.75,8.61,2.14,12.52h22.91v-67.9h-.03Z"/><path class="cls-7" d="m96.27,143.02h-25.04v22.91c3.19,1.12,6.57,1.83,10.09,2.06h14.95v-24.97Z"/><path class="cls-7" d="m96.27,52.22v90.81h25l.05-55.37c0-4.39-.75-8.61-2.14-12.52-.21-.59-.43-1.19-.68-1.77-4.05-9.84-12.15-17.57-22.23-21.13h.01Z"/><path class="cls-8" d="m71.21,75.13v-25.04h-25.04v25.04h25.04Z"/></g></svg>